<svg width="13" height="14" viewBox="0 0 13 14" fill="none" xmlns="http://www.w3.org/2000/svg">
<path d="M6.33249 14C6.67721 13.9996 7.0152 13.8987 7.30971 13.7083L11.4327 11.2046C11.7073 11.028 11.9344 10.779 12.0921 10.4819C12.2498 10.1848 12.3328 9.84943 12.333 9.5083V4.50909C12.333 3.77817 11.9838 3.12658 11.3668 2.75325L7.29324 0.279313C7.00272 0.0963764 6.67122 -0.000102557 6.33352 8.18085e-08C5.99582 0.000102721 5.66437 0.0967831 5.37395 0.279896L1.30041 2.75208C1.00501 2.9247 0.759101 3.17908 0.588789 3.48822C0.418477 3.79736 0.330114 4.14973 0.33308 4.50793V9.51413C0.33308 10.0782 0.576284 10.7765 1.23178 11.2046L5.35473 13.7083C5.66437 13.909 6.01298 14 6.33304 14H6.33249ZM6.60699 1.54749L10.7492 4.06167C10.8163 4.11183 10.8705 4.17906 10.9068 4.25722C10.9432 4.33538 10.9605 4.42198 10.9572 4.50909L10.9567 9.56663C10.9472 9.63966 10.9242 9.70997 10.889 9.77354C10.8539 9.8371 10.8073 9.89267 10.7519 9.93705L6.6015 12.4547C6.45547 12.5551 6.23697 12.5772 6.06074 12.4547L1.9334 9.94872C1.87219 9.90616 1.82038 9.85002 1.78152 9.78417C1.74267 9.71831 1.71769 9.6443 1.70831 9.56722V4.50909C1.7064 4.42241 1.72422 4.33652 1.76025 4.25872C1.79629 4.18092 1.84947 4.11353 1.91528 4.06226L6.058 1.54691C6.13949 1.48982 6.23497 1.45944 6.33258 1.45954C6.43018 1.45965 6.52561 1.49023 6.60699 1.54749Z" fill="#BFC1C6"/>
</svg>
