<svg width="323" height="381" viewBox="0 0 323 381" fill="none" xmlns="http://www.w3.org/2000/svg">
<path d="M314.69 -125C252.45 -125 191.608 -106.544 139.858 -71.9652C88.1072 -37.3866 47.7726 11.7612 23.9545 69.2633C0.13635 126.765 -6.09556 190.039 6.04682 251.083C18.1892 312.127 48.1605 368.199 92.1707 412.209C136.181 456.22 192.253 486.191 253.297 498.333C314.341 510.476 377.615 504.244 435.117 480.426C492.619 456.607 541.767 416.273 576.345 364.522C610.924 312.772 629.38 251.93 629.38 189.69C629.38 106.229 596.225 26.1864 537.209 -32.8295C478.194 -91.8453 398.151 -125 314.69 -125V-125ZM314.69 384.175C276.225 384.175 238.623 372.768 206.64 351.398C174.657 330.028 149.73 299.653 135.01 264.116C120.29 228.579 116.438 189.474 123.942 151.748C131.447 114.022 149.97 79.3677 177.169 52.1685C204.368 24.9694 239.022 6.44653 276.748 -1.0577C314.474 -8.56194 353.579 -4.71049 389.116 10.0096C424.654 24.7297 455.028 49.6573 476.398 81.6401C497.768 113.623 509.175 151.225 509.175 189.69C509.177 215.231 504.148 240.522 494.375 264.119C484.602 287.716 470.277 309.156 452.217 327.216C434.157 345.276 412.716 359.602 389.119 369.375C365.522 379.148 340.231 384.177 314.69 384.175Z" fill="url(#paint0_radial_1123_8331)"/>
<path d="M314.69 -4.8295C276.226 -4.8295 238.626 6.57594 206.644 27.9446C174.661 49.3134 149.734 79.6856 135.013 115.221C120.292 150.756 116.438 189.859 123.94 227.584C131.441 265.31 149.96 299.964 177.156 327.164C204.352 354.365 239.002 372.89 276.726 380.399C314.45 387.907 353.554 384.06 389.092 369.345C424.63 354.631 455.006 329.709 476.381 297.73C497.755 265.752 509.167 228.154 509.174 189.69C509.181 164.146 504.156 138.852 494.385 115.25C484.614 91.6495 470.289 70.2046 452.229 52.1409C434.168 34.0772 412.726 19.7486 389.127 9.97343C365.527 0.1983 340.233 -4.83179 314.69 -4.8295ZM314.69 263.952C299.995 263.952 285.631 259.594 273.413 251.431C261.195 243.267 251.672 231.663 246.049 218.087C240.425 204.511 238.954 189.573 241.821 175.161C244.687 160.748 251.763 147.51 262.154 137.119C272.545 126.729 285.783 119.653 300.195 116.786C314.607 113.919 329.546 115.391 343.122 121.014C356.698 126.637 368.301 136.16 376.465 148.378C384.629 160.596 388.987 174.961 388.987 189.655C388.991 199.415 387.073 209.08 383.341 218.098C379.609 227.116 374.137 235.311 367.238 242.213C360.338 249.116 352.146 254.592 343.13 258.328C334.114 262.064 324.449 263.987 314.69 263.987V263.952Z" fill="url(#paint1_radial_1123_8331)"/>
<defs>
<radialGradient id="paint0_radial_1123_8331" cx="0" cy="0" r="1" gradientUnits="userSpaceOnUse" gradientTransform="translate(314.69 189.69) scale(314.69 314.69)">
<stop offset="0.65" stop-color="#1988F7" stop-opacity="0"/>
<stop offset="1" stop-color="#1988F7"/>
</radialGradient>
<radialGradient id="paint1_radial_1123_8331" cx="0" cy="0" r="1" gradientUnits="userSpaceOnUse" gradientTransform="translate(314.69 189.69) scale(194.485 194.485)">
<stop offset="0.5" stop-color="#6AB0F8" stop-opacity="0"/>
<stop offset="1" stop-color="#6AB0F8"/>
</radialGradient>
</defs>
</svg>
