<svg width="325" height="381" viewBox="0 0 325 381" fill="none" xmlns="http://www.w3.org/2000/svg">
<path d="M9.69009 -125C-52.5497 -125 -113.392 -106.544 -165.142 -71.9652C-216.893 -37.3866 -257.227 11.7612 -281.046 69.2633C-304.864 126.765 -311.096 190.039 -298.953 251.083C-286.811 312.127 -256.839 368.199 -212.829 412.209C-168.819 456.22 -112.747 486.191 -51.7029 498.333C9.341 510.476 72.6146 504.244 130.117 480.426C187.619 456.607 236.767 416.273 271.345 364.522C305.924 312.772 324.38 251.93 324.38 189.69C324.38 106.229 291.225 26.1864 232.209 -32.8295C173.194 -91.8453 93.151 -125 9.69009 -125V-125ZM9.69009 384.175C-28.7753 384.175 -66.3769 372.768 -98.3598 351.398C-130.343 330.028 -155.27 299.653 -169.99 264.116C-184.71 228.579 -188.562 189.474 -181.058 151.748C-173.553 114.022 -155.03 79.3677 -127.831 52.1685C-100.632 24.9694 -65.9783 6.44653 -28.252 -1.0577C9.47433 -8.56194 48.5787 -4.71049 84.1161 10.0096C119.654 24.7297 150.028 49.6573 171.398 81.6401C192.768 113.623 204.175 151.225 204.175 189.69C204.177 215.231 199.148 240.522 189.375 264.119C179.602 287.716 165.277 309.156 147.217 327.216C129.157 345.276 107.716 359.602 84.1188 369.375C60.5218 379.148 35.2308 384.177 9.69009 384.175Z" fill="url(#paint0_radial_1123_8338)"/>
<path d="M9.68977 -4.8295C-28.7742 -4.8295 -66.3744 6.57594 -98.3565 27.9446C-130.339 49.3134 -155.266 79.6856 -169.987 115.221C-184.708 150.756 -188.562 189.859 -181.06 227.584C-173.559 265.31 -155.04 299.964 -127.844 327.164C-100.648 354.365 -65.9977 372.89 -28.2736 380.399C9.45039 387.907 48.5537 384.06 84.0917 369.345C119.63 354.631 150.006 329.709 171.381 297.73C192.755 265.752 204.167 228.154 204.174 189.69C204.181 164.146 199.156 138.852 189.385 115.25C179.614 91.6495 165.289 70.2046 147.229 52.1409C129.168 34.0772 107.726 19.7486 84.1266 9.97343C60.5273 0.1983 35.2334 -4.83179 9.68977 -4.8295ZM9.68977 263.952C-5.00473 263.952 -19.3692 259.594 -31.5872 251.431C-43.8053 243.267 -53.3281 231.663 -58.9514 218.087C-64.5748 204.511 -66.0461 189.573 -63.1793 175.161C-60.3126 160.748 -53.2365 147.51 -42.8459 137.119C-32.4554 126.729 -19.2169 119.653 -4.80479 116.786C9.60736 113.919 24.5459 115.391 38.1219 121.014C51.6978 126.637 63.3014 136.16 71.4652 148.378C79.6291 160.596 83.9865 174.961 83.9865 189.655C83.9911 199.415 82.0727 209.08 78.341 218.098C74.6093 227.116 69.1373 235.311 62.2378 242.213C55.3383 249.116 47.1463 254.592 38.1299 258.328C29.1136 262.064 19.4495 263.987 9.68977 263.987V263.952Z" fill="url(#paint1_radial_1123_8338)"/>
<defs>
<radialGradient id="paint0_radial_1123_8338" cx="0" cy="0" r="1" gradientUnits="userSpaceOnUse" gradientTransform="translate(9.6901 189.69) scale(314.69 314.69)">
<stop offset="0.65" stop-color="#1988F7" stop-opacity="0"/>
<stop offset="1" stop-color="#1988F7"/>
</radialGradient>
<radialGradient id="paint1_radial_1123_8338" cx="0" cy="0" r="1" gradientUnits="userSpaceOnUse" gradientTransform="translate(9.68977 189.69) scale(194.485 194.485)">
<stop offset="0.5" stop-color="#6AB0F8" stop-opacity="0"/>
<stop offset="1" stop-color="#6AB0F8"/>
</radialGradient>
</defs>
</svg>
