<svg width="18" height="12" viewBox="0 0 18 12" fill="none" xmlns="http://www.w3.org/2000/svg">
<path d="M14.8741 1.185C13.2955 0.4125 11.2085 0 8.83301 0C6.45756 0 4.37051 0.4125 2.79194 1.185C1.21337 1.9575 0.333008 3.06 0.333008 4.2V7.8C0.333008 8.94 1.22854 10.0425 2.79194 10.815C4.35533 11.5875 6.45756 12 8.83301 12C11.2085 12 13.2955 11.5875 14.8741 10.815C16.4527 10.0425 17.333 8.94 17.333 7.8V4.2C17.333 3.06 16.4375 1.9575 14.8741 1.185ZM8.83301 1.2C13.5839 1.2 16.1187 2.94 16.1187 4.2C16.1187 4.9425 15.2308 5.865 13.508 6.4875H13.4852C12.3089 6.9075 10.7531 7.1925 8.83301 7.1925C6.91292 7.1925 5.35711 6.9075 4.18078 6.4875H4.15801C2.43524 5.865 1.54729 4.9425 1.54729 4.2C1.54729 2.94 4.08212 1.2 8.83301 1.2ZM8.22586 8.3925V10.7925C6.7839 10.74 5.56961 10.53 4.58301 10.23V7.875C5.66828 8.175 6.89774 8.3475 8.22586 8.3925ZM9.44015 8.3925C10.7683 8.3475 11.9977 8.175 13.083 7.875V10.23C12.0964 10.53 10.8821 10.74 9.44015 10.7925V8.3925ZM1.54729 7.8V6.4125C1.9293 6.72676 2.34699 6.99607 2.79194 7.215L3.36872 7.47V9.75C2.16961 9.165 1.54729 8.4225 1.54729 7.8ZM14.2973 9.75V7.47L14.8741 7.215C15.319 6.99607 15.7367 6.72676 16.1187 6.4125V7.8C16.1187 8.4225 15.4964 9.165 14.2973 9.75Z" fill="#BFC1C6"/>
</svg>
